<?xml version="1.0" standalone="no"?><!DOCTYPE svg PUBLIC "-//W3C//DTD SVG 1.1//EN" "http://www.w3.org/Graphics/SVG/1.1/DTD/svg11.dtd"><svg t="1637564339186" class="icon" viewBox="0 0 1024 1024" version="1.1" xmlns="http://www.w3.org/2000/svg" p-id="22844" xmlns:xlink="http://www.w3.org/1999/xlink" width="200" height="200"><defs><style type="text/css"></style></defs><path d="M786.285714 804.571429h18.285715V438.857143h-18.285715q-20 0-38.571428-6.857143t-35.714286-21.142857-28.571429-26.285714-28-30.857143q-1.142857-1.714286-2-2.571429t-2.285714-2.571428-2.571428-2.857143q-41.142857-46.285714-64-82.857143-8-12.571429-21.714286-38.857143-0.571429-1.714286-6-12.857143t-10.571429-20.571428-11.428571-20.285715-12.285714-17.428571T512 146.285714q-40.571429 0-66 17.428572T420.571429 219.428571q0 24.571429 8.571428 48.285715t18.857143 38.857143 18.857143 31.428571 8.571428 27.714286H146.285714q-28.571429 0-50.857143 22T73.142857 438.857143q0 29.714286 21.714286 51.428571t51.428571 21.714286h189.142857q-8.571429 9.714286-14.285714 27.142857T315.428571 570.857143q0 39.428571 30.285715 68-10.285714 18.285714-10.285715 39.428571t10 42T372.571429 750.285714q-2.285714 13.714286-2.285715 32 0 48.571429 27.714286 72t77.428571 23.428572q48 0 104.571429-18.285715t110.857143-36.571428 95.428571-18.285714z m164.571429-36.571429q0-14.857143-10.857143-25.714286t-25.714286-10.857143-25.714285 10.857143-10.857143 25.714286 10.857143 25.714286 25.714285 10.857143 25.714286-10.857143 10.857143-25.714286z m73.142857-329.142857v365.714286q0 30.285714-21.428571 51.714285T950.857143 877.714286h-164.571429q-33.714286 0-127.428571 33.714285-108.571429 39.428571-181.142857 39.428572-81.142857 0-131.428572-44.285714T296.571429 782.285714l0.571428-2.857143q-34.857143-43.428571-34.857143-101.714285 0-12.571429 1.714286-24.571429-18.857143-32.571429-21.142857-68H146.285714q-60 0-103.142857-43.428571T0 438.285714q0-58.857143 43.428571-102.285714t102.857143-43.428571h213.714286q-12.571429-34.285714-12.571429-73.142858 0-69.714286 46.571429-108T512 73.142857q21.714286 0 39.714286 10t31.428571 28.285714 23.142857 36 21.142857 41.142858 18.857143 35.428571q20 31.428571 57.142857 73.714286 1.142857 1.714286 8 9.714285t10.857143 12.285715 11.714286 12.285714 13.714286 12.857143 12.857143 10.285714 13.428571 8 12.285714 2.571429h164.571429q30.285714 0 51.714286 21.428571T1024 438.857143z" p-id="22845" fill="#2c2c2c"></path></svg>