<svg xmlns="http://www.w3.org/2000/svg" viewBox="0 0 229.09 23.6"><defs><style>.cls-1{fill:#fff;}.cls-2{fill:#6017ff;}</style></defs><g id="レイヤー_2" data-name="レイヤー 2"><g id="レイヤー_1-2" data-name="レイヤー 1"><path class="cls-1" d="M12.73,5.47,10.2,7a4.38,4.38,0,0,0-1.36-1.6,3.1,3.1,0,0,0-1.73-.43A3.18,3.18,0,0,0,5,5.67,2.31,2.31,0,0,0,4.1,7.5c0,1,.75,1.82,2.25,2.43l2.06.85a8.93,8.93,0,0,1,3.69,2.48,5.59,5.59,0,0,1,1.16,3.6,6.32,6.32,0,0,1-1.9,4.72,6.52,6.52,0,0,1-4.75,1.87,6.37,6.37,0,0,1-4.45-1.59A7.32,7.32,0,0,1,0,17.37l3.16-.7a5.28,5.28,0,0,0,.75,2.52,3.24,3.24,0,0,0,2.82,1.34,3.23,3.23,0,0,0,2.42-1,3.38,3.38,0,0,0,1-2.47A3.5,3.5,0,0,0,10,16a2.8,2.8,0,0,0-.52-.92,4.3,4.3,0,0,0-.92-.8,9.21,9.21,0,0,0-1.34-.7l-2-.83Q.92,10.92.92,7.47a5,5,0,0,1,1.79-3.9A6.43,6.43,0,0,1,7.14,2,6.19,6.19,0,0,1,12.73,5.47Z"/><path class="cls-1" d="M16.45.45h3V11.11A5.19,5.19,0,0,1,23,9.67a4.59,4.59,0,0,1,3.54,1.43,5.84,5.84,0,0,1,1.12,4v8h-3V15.36a3.69,3.69,0,0,0-.56-2.27,2.14,2.14,0,0,0-1.79-.7,2.46,2.46,0,0,0-2.22,1,6.75,6.75,0,0,0-.63,3.41v6.31h-3Z"/><path class="cls-1" d="M34.51,10v7.49c0,2.16.86,3.24,2.56,3.24s2.56-1.08,2.56-3.24V10h3v7.55a8.38,8.38,0,0,1-.39,2.71A4.55,4.55,0,0,1,41,22.13a5.73,5.73,0,0,1-3.89,1.32,5.71,5.71,0,0,1-3.87-1.32,4.61,4.61,0,0,1-1.32-1.84,7.25,7.25,0,0,1-.38-2.71V10Z"/><path class="cls-1" d="M58.62,10.64l8.05-8.25h4.17l-9.35,9.37,9.4,11.32H66.71l-7.45-9.21-.64.65v8.56H55.5V2.39h3.12Z"/><path class="cls-1" d="M82.72,10h3V23.08h-3V21.71a5.8,5.8,0,0,1-8.48-.21,7.29,7.29,0,0,1-1.75-5,7.07,7.07,0,0,1,1.75-4.89,5.68,5.68,0,0,1,4.4-1.95,5.52,5.52,0,0,1,4.08,1.87Zm-7.15,6.48a4.56,4.56,0,0,0,1,3.06,3.32,3.32,0,0,0,2.6,1.19,3.46,3.46,0,0,0,2.71-1.15,4.47,4.47,0,0,0,1-3,4.47,4.47,0,0,0-1-3,3.4,3.4,0,0,0-2.68-1.16,3.34,3.34,0,0,0-2.6,1.17A4.35,4.35,0,0,0,75.57,16.51Z"/><path class="cls-1" d="M89.1,4.6a1.86,1.86,0,0,1,.58-1.37,1.88,1.88,0,0,1,1.38-.57,1.9,1.9,0,0,1,1.39.57A1.85,1.85,0,0,1,93,4.61,1.89,1.89,0,0,1,92.45,6a1.85,1.85,0,0,1-1.38.57,2,2,0,0,1-2-2ZM92.57,10V23.08h-3V10Z"/><path class="cls-1" d="M96.86,21.58a1.75,1.75,0,0,1,.55-1.3,1.78,1.78,0,0,1,1.31-.55,1.86,1.86,0,0,1,1.86,1.86,1.83,1.83,0,0,1-1.86,1.86,1.83,1.83,0,0,1-1.86-1.87Z"/><path class="cls-2" d="M111.1,23.08h-5.38V2.39h8.56a7.33,7.33,0,0,1,5.34,1.81,6.83,6.83,0,0,1,1.85,5.1,6.84,6.84,0,0,1-1.85,5.11,7.38,7.38,0,0,1-5.34,1.81H111.1Zm0-11.2h1.78q3,0,3-2.58t-3-2.58H111.1Z"/><path class="cls-2" d="M123.31,15.92a6.89,6.89,0,0,1,.63-2.93,7.26,7.26,0,0,1,1.76-2.36,8.41,8.41,0,0,1,2.67-1.57,9.58,9.58,0,0,1,3.39-.58,9.87,9.87,0,0,1,3.36.56,8.33,8.33,0,0,1,2.69,1.57A6.93,6.93,0,0,1,139.58,13a7.35,7.35,0,0,1,.63,3.06,7.14,7.14,0,0,1-.64,3.06,7.24,7.24,0,0,1-1.77,2.39,8,8,0,0,1-2.7,1.55,10.31,10.31,0,0,1-3.42.55,9.81,9.81,0,0,1-3.35-.55,7.94,7.94,0,0,1-2.65-1.56,7.31,7.31,0,0,1-1.74-2.43A7.62,7.62,0,0,1,123.31,15.92Zm5.24.05a3.21,3.21,0,0,0,.26,1.3,3.38,3.38,0,0,0,.69,1,2.84,2.84,0,0,0,1,.69,3.32,3.32,0,0,0,1.25.25A3.28,3.28,0,0,0,133,19a3,3,0,0,0,1-.69,3.36,3.36,0,0,0,.68-1,3.18,3.18,0,0,0,0-2.52,3.48,3.48,0,0,0-.68-1,3.22,3.22,0,0,0-2.27-.93,3.14,3.14,0,0,0-1.25.25,3,3,0,0,0-1,.68,3.46,3.46,0,0,0-.69,1A3,3,0,0,0,128.55,16Z"/><path class="cls-2" d="M143.07,9h5v2.31A5.65,5.65,0,0,1,150,9.37a5.24,5.24,0,0,1,2.69-.67h.43a3.74,3.74,0,0,1,.53.05V13.5a4.7,4.7,0,0,0-2.14-.49,3.17,3.17,0,0,0-2.59,1,4.51,4.51,0,0,0-.87,3v6h-5Z"/><path class="cls-2" d="M161.37,13.14v9.94h-5V13.14h-1.64V9h1.64V4.78h5V9h2.83v4.14Z"/><path class="cls-2" d="M171.44,13.14v9.94h-5V13.14h-1.78V9h1.78V6.89a9.56,9.56,0,0,1,.33-2.8,5.07,5.07,0,0,1,.88-1.63,6.28,6.28,0,0,1,1.41-1.31A6.92,6.92,0,0,1,170.84.3a6,6,0,0,1,1.84-.3,4.67,4.67,0,0,1,1.16.14,7.08,7.08,0,0,1,1.09.38V4.86a5,5,0,0,0-.92-.37,3,3,0,0,0-.89-.13,2.23,2.23,0,0,0-.62.1,1.3,1.3,0,0,0-.59.4,1.59,1.59,0,0,0-.37.86,8.83,8.83,0,0,0-.1,1.53V9h3.49v4.14Z"/><path class="cls-2" d="M176.24,15.92a6.89,6.89,0,0,1,.63-2.93,7.26,7.26,0,0,1,1.76-2.36,8.35,8.35,0,0,1,2.68-1.57,9.5,9.5,0,0,1,3.39-.58,10,10,0,0,1,3.36.56,8.43,8.43,0,0,1,2.69,1.57A7.2,7.2,0,0,1,192.52,13a7.35,7.35,0,0,1,.63,3.06,7.14,7.14,0,0,1-.65,3.06,7.24,7.24,0,0,1-1.77,2.39,8,8,0,0,1-2.7,1.55,10.22,10.22,0,0,1-3.42.55,9.85,9.85,0,0,1-3.35-.55,7.89,7.89,0,0,1-2.64-1.56,7.34,7.34,0,0,1-1.75-2.43A7.62,7.62,0,0,1,176.24,15.92Zm5.24.05a3.05,3.05,0,0,0,.27,1.3,3.36,3.36,0,0,0,.68,1,2.79,2.79,0,0,0,1,.69,3.23,3.23,0,0,0,2.49,0,2.88,2.88,0,0,0,1-.69,3.58,3.58,0,0,0,.69-1,3.18,3.18,0,0,0,0-2.52,3.72,3.72,0,0,0-.69-1,3,3,0,0,0-1-.68,3.23,3.23,0,0,0-2.49,0,2.9,2.9,0,0,0-1,.68,3.43,3.43,0,0,0-.68,1A2.84,2.84,0,0,0,181.48,16Z"/><path class="cls-2" d="M201,.3V23.08h-5V.3Z"/><path class="cls-2" d="M204,3.59a2.64,2.64,0,0,1,.22-1.08,3,3,0,0,1,.6-.89,2.73,2.73,0,0,1,.9-.6A2.61,2.61,0,0,1,206.84.8a2.64,2.64,0,0,1,1.08.22,2.73,2.73,0,0,1,.9.6,3,3,0,0,1,.6.89,2.64,2.64,0,0,1,.22,1.08,2.66,2.66,0,0,1-.22,1.09,3,3,0,0,1-.6.89,2.73,2.73,0,0,1-.9.6,2.64,2.64,0,0,1-1.08.22,2.61,2.61,0,0,1-1.08-.22,2.73,2.73,0,0,1-.9-.6,3,3,0,0,1-.6-.89A2.66,2.66,0,0,1,204,3.59ZM209.34,9V23.08h-5V9Z"/><path class="cls-2" d="M212.19,15.92a6.89,6.89,0,0,1,.63-2.93,7.26,7.26,0,0,1,1.76-2.36,8.41,8.41,0,0,1,2.67-1.57,9.58,9.58,0,0,1,3.39-.58A9.87,9.87,0,0,1,224,9a8.33,8.33,0,0,1,2.69,1.57A6.93,6.93,0,0,1,228.46,13a7.35,7.35,0,0,1,.63,3.06,7.14,7.14,0,0,1-.64,3.06,7.24,7.24,0,0,1-1.77,2.39,8,8,0,0,1-2.7,1.55,10.26,10.26,0,0,1-3.42.55,9.81,9.81,0,0,1-3.35-.55,7.94,7.94,0,0,1-2.65-1.56,7.31,7.31,0,0,1-1.74-2.43A7.62,7.62,0,0,1,212.19,15.92Zm5.24.05a3.21,3.21,0,0,0,.26,1.3,3.38,3.38,0,0,0,.69,1,2.84,2.84,0,0,0,1,.69,3.32,3.32,0,0,0,1.25.25,3.28,3.28,0,0,0,1.25-.25,3,3,0,0,0,1-.69,3.36,3.36,0,0,0,.68-1,3.18,3.18,0,0,0,0-2.52,3.48,3.48,0,0,0-.68-1,3.22,3.22,0,0,0-2.27-.93,3.14,3.14,0,0,0-1.25.25,3,3,0,0,0-1,.68,3.46,3.46,0,0,0-.69,1A3,3,0,0,0,217.43,16Z"/></g></g></svg>