<?xml version="1.0" standalone="no"?><!DOCTYPE svg PUBLIC "-//W3C//DTD SVG 1.1//EN" "http://www.w3.org/Graphics/SVG/1.1/DTD/svg11.dtd"><svg t="1637552180398" class="icon" viewBox="0 0 1024 1024" version="1.1" xmlns="http://www.w3.org/2000/svg" p-id="2533" xmlns:xlink="http://www.w3.org/1999/xlink" width="200" height="200"><defs><style type="text/css"></style></defs><path d="M1003.1104 183.5008c-36.864 17.2032-76.1856 28.2624-115.9168 32.768 41.7792-26.624 73.3184-68.8128 88.4736-118.3744-39.7312 24.9856-83.1488 43.008-128.2048 52.0192-56.5248-64.3072-144.1792-85.1968-220.7744-52.4288-76.5952 32.768-126.976 112.2304-127.3856 201.1136 0.4096 16.7936 2.4576 33.1776 6.144 49.5616C343.2448 339.1488 192.1024 256 90.112 119.6032c-54.8864 99.5328-27.8528 227.7376 61.44 292.0448-31.9488-1.2288-63.0784-10.6496-90.9312-27.4432v2.4576c0 103.2192 67.584 192.512 161.3824 212.992-17.2032 4.9152-35.2256 7.3728-52.8384 7.3728-12.6976 0-25.3952-0.8192-38.0928-2.4576 26.624 88.4736 101.9904 148.6848 188.416 150.7328-71.2704 59.8016-159.3344 92.16-250.2656 91.7504-16.384 0-32.3584-0.8192-48.3328-2.4576 92.16 63.8976 199.4752 97.8944 309.248 97.8944 370.2784 0 573.0304-330.5472 573.0304-617.2672v-29.0816c39.3216-31.1296 73.3184-69.2224 100.7616-112.2304l-0.8192-0.4096z" fill="#ffffff" p-id="2534"></path></svg>