<svg xmlns="http://www.w3.org/2000/svg" viewBox="0 0 22.4 22.4"><defs><style>.cls-1{fill:#070809;}.cls-2{fill:#eee253;}</style></defs><title>Asset 4</title><g id="Layer_2" data-name="Layer 2"><g id="Layer_1-2" data-name="Layer 1"><path class="cls-1" d="M20.49,1a.91.91,0,0,1,.91.91V20.49a.91.91,0,0,1-.91.91H1.91A.91.91,0,0,1,1,20.49V1.91A.91.91,0,0,1,1.91,1H20.49m0-1H1.91A1.9,1.9,0,0,0,0,1.91V20.49A1.91,1.91,0,0,0,1.91,22.4H20.49a1.92,1.92,0,0,0,1.91-1.91V1.91A1.91,1.91,0,0,0,20.49,0Z"/><rect class="cls-2" x="2.39" y="2.4" width="17.68" height="17.68"/><path class="cls-1" d="M4.43,6.87h1.7L8,9.75,9.91,6.87H11.5L8.81,10.79,11.7,15H10l-2-3.11L5.87,15H4.24l2.88-4.22ZM17.9,15H16.67v-.79h0a2,2,0,0,1-1.82.95c-1.86,0-2.76-1.38-2.76-3.14C12.06,9.89,13.33,9,14.61,9a2.28,2.28,0,0,1,2,.92h0v-3h1.3ZM15,14.15c1.16,0,1.65-1.06,1.65-2.09C16.64,10.76,16,10,15,10c-1.22,0-1.65,1.09-1.65,2.15s.5,2,1.63,2Z"/></g></g></svg>